<?xml version="1.0" encoding="UTF-8" ?>
<!DOCTYPE svg PUBLIC "-//W3C//DTD SVG 1.1//EN" "http://www.w3.org/Graphics/SVG/1.1/DTD/svg11.dtd">
<svg width="500pt" height="500pt" viewBox="0 0 500 500" version="1.1" xmlns="http://www.w3.org/2000/svg">
<g id="#00768eff">
<path fill="#00768e" opacity="1.00" d=" M 222.94 50.15 C 235.75 47.40 248.96 45.35 262.04 47.46 C 270.05 48.91 278.32 49.68 285.88 52.91 C 321.18 64.91 349.34 96.31 356.80 132.91 C 360.24 145.62 359.97 159.04 358.46 172.01 C 356.92 179.10 355.45 186.24 353.19 193.14 C 348.45 190.75 343.18 189.76 338.38 187.55 C 333.62 185.43 328.43 184.46 323.75 182.14 C 327.36 169.66 329.96 156.30 326.85 143.42 C 323.25 117.71 305.04 94.89 281.30 84.71 C 266.97 78.14 250.60 77.21 235.18 79.62 C 207.11 84.58 182.97 106.57 175.15 133.93 C 172.78 143.92 170.64 154.25 172.35 164.54 C 173.76 171.95 174.76 179.62 178.18 186.44 C 182.00 195.68 187.77 204.06 194.84 211.12 C 201.85 218.45 210.88 223.26 218.96 229.23 C 203.74 256.38 189.46 284.07 174.43 311.34 C 180.30 317.99 185.19 325.93 186.53 334.84 C 189.49 348.58 185.52 363.60 176.25 374.14 C 167.38 384.60 153.78 391.07 140.00 390.67 C 122.09 390.77 104.92 379.12 97.83 362.78 C 93.12 353.30 92.92 342.11 95.16 331.93 C 98.81 317.82 109.42 305.80 122.89 300.28 C 130.62 297.46 138.85 295.87 147.09 296.88 C 158.06 276.91 168.64 256.73 179.72 236.81 C 163.44 222.88 150.63 204.46 144.55 183.84 C 140.09 169.31 139.46 153.79 141.80 138.81 C 143.64 131.45 144.81 123.84 147.94 116.88 C 160.27 84.30 189.21 58.67 222.94 50.15 M 135.28 329.25 C 127.90 331.33 123.72 339.78 125.39 347.07 C 127.11 357.32 140.63 363.07 149.07 356.79 C 157.42 352.04 158.37 338.91 151.46 332.53 C 147.39 328.30 140.68 327.60 135.28 329.25 Z" />
<path fill="#00768e" opacity="1.00" d=" M 204.95 143.00 C 210.67 123.36 230.32 108.42 250.97 109.37 C 274.00 109.26 295.16 128.95 296.61 151.95 C 297.93 165.05 293.36 178.45 284.30 187.99 C 296.17 206.99 307.95 226.05 319.94 244.98 C 328.38 241.52 336.84 238.03 345.70 235.80 C 367.88 231.68 391.10 236.73 410.84 247.21 C 434.48 259.80 453.30 281.34 462.27 306.61 C 465.43 313.78 466.27 321.64 467.97 329.22 C 469.54 340.42 469.51 351.95 466.98 363.01 C 461.52 396.51 438.77 426.41 408.47 441.50 C 402.80 444.65 396.58 446.59 390.53 448.83 C 375.88 452.39 360.55 454.99 345.54 452.22 C 338.50 450.97 331.29 450.19 324.62 447.50 C 306.77 441.36 290.19 430.80 277.91 416.39 C 285.56 409.46 293.58 402.93 301.11 395.88 C 316.58 413.13 339.75 423.07 362.96 421.53 C 391.68 420.97 418.90 402.32 430.39 376.11 C 438.23 359.38 439.08 339.88 434.47 322.11 C 429.47 305.09 418.73 289.70 404.02 279.67 C 386.62 267.41 364.09 262.90 343.27 267.23 C 338.91 268.49 334.48 269.53 330.21 271.09 C 321.99 274.52 314.52 279.45 306.90 283.99 C 301.83 274.55 295.73 265.70 290.14 256.56 C 280.06 240.44 269.87 224.38 259.79 208.26 C 258.39 206.16 257.24 202.39 254.01 203.17 C 246.53 204.06 239.17 202.09 232.16 199.70 C 219.80 194.46 209.82 183.94 205.46 171.23 C 202.71 162.10 202.47 152.22 204.95 143.00 M 245.23 141.30 C 241.05 142.92 237.11 146.05 235.51 150.35 C 233.83 155.40 234.15 161.64 237.71 165.82 C 243.29 173.60 256.86 173.58 262.36 165.72 C 265.99 161.35 266.26 154.85 264.23 149.71 C 261.05 142.73 252.57 138.94 245.23 141.30 Z" />
<path fill="#00768e" opacity="1.00" d=" M 79.16 253.17 C 92.20 244.29 107.21 238.38 122.73 235.67 C 124.53 245.89 125.61 256.22 127.36 266.44 C 122.51 267.79 117.61 269.00 112.82 270.59 C 96.59 276.89 82.29 288.49 73.50 303.60 C 70.70 307.74 69.08 312.50 67.02 317.03 C 64.29 324.05 63.40 331.61 62.49 339.04 C 60.88 364.55 72.61 390.43 93.04 405.85 C 115.23 423.32 147.31 426.75 172.90 415.00 C 195.10 405.04 212.23 384.06 216.79 360.07 C 219.82 349.73 218.53 338.86 218.82 328.25 C 250.92 328.13 283.01 328.27 315.11 328.17 C 319.98 315.72 329.65 305.02 342.18 300.07 C 348.55 298.02 355.17 296.07 361.94 296.68 C 372.07 297.78 382.15 301.27 389.84 308.15 C 400.19 316.93 406.60 330.34 406.19 343.99 C 406.80 367.26 387.04 388.72 363.93 390.46 C 352.89 391.63 341.58 388.61 332.61 382.09 C 324.64 376.61 318.88 368.41 315.22 359.55 C 292.16 359.53 269.10 359.50 246.04 359.56 C 245.19 364.98 244.47 370.48 242.62 375.67 C 240.70 380.97 239.57 386.58 236.80 391.54 C 226.47 415.90 206.09 435.86 181.35 445.31 C 177.41 446.65 173.62 448.48 169.54 449.42 C 155.30 452.61 140.47 454.86 125.97 451.99 C 95.95 448.33 67.97 431.14 50.79 406.29 C 42.29 393.95 35.99 379.93 33.45 365.11 C 30.42 351.98 30.19 338.12 33.02 324.93 C 37.68 296.05 54.89 269.49 79.16 253.17 M 354.18 329.18 C 347.46 331.01 343.17 338.27 344.06 345.07 C 344.07 352.88 351.41 359.36 359.03 359.33 C 367.69 359.84 375.85 351.62 374.88 342.88 C 374.88 338.00 372.00 333.64 368.22 330.77 C 364.02 328.36 358.82 327.74 354.18 329.18 Z" />
</g>
</svg>
